<svg xmlns="http://www.w3.org/2000/svg" xmlns:xlink="http://www.w3.org/1999/xlink" version="1.1" data-diagram-type="ACTIVITY" style="width:1925px;height:1998px;background:#FFFFFF;" width="1925px" height="1998px" viewBox="0 0 1925 1998" zoomAndPan="magnify" preserveAspectRatio="none" contentStyleType="text/css"><?plantuml 1.2026.7beta8?><defs/><g id="plantuml-shifted" transform="translate(0,50.29)"><g font-family="sans-serif" lengthAdjust="spacing"><g class="title" data-source-line="38"><text x="732.942" y="41.244" fill="#000" font-size="17.5" textLength="456.794" font-weight="700" font-family="Arial">Luồng người dùng sử dụng Chatbox Fruitables</text></g><rect x="25" y="67.034" width="1866.428" height="17.461" fill="none" style="stroke:none;"/><ellipse cx="342.485" cy="103.245" rx="12.5" ry="12.5" fill="#000" style="stroke:#222;stroke-width:1.25;"/><rect x="274.38" y="140.745" width="136.211" height="42.461" fill="#FFF" style="stroke:#000;stroke-width:0.625;" rx="7.5" ry="7.5"/><text x="286.88" y="167.168" fill="#000" font-size="15" textLength="111.211" font-family="Arial">Mở khung chat</text><rect x="202.759" y="550.51" width="102.424" height="42.461" fill="#FFF" style="stroke:#000;stroke-width:0.625;" rx="7.5" ry="7.5"/><text x="215.259" y="576.934" fill="#000" font-size="15" textLength="77.424" font-family="Arial">Đóng chat</text><ellipse cx="253.972" cy="631.721" rx="13.75" ry="13.75" fill="none" style="stroke:#222;stroke-width:1.25;"/><ellipse cx="253.972" cy="631.721" rx="7.5" ry="7.5" fill="#222" style="stroke:#222;stroke-width:1.25;"/><rect x="228.23" y="725.471" width="228.511" height="42.461" fill="#FFF" style="stroke:#000;stroke-width:0.625;" rx="7.5" ry="7.5"/><text x="240.73" y="751.895" fill="#000" font-size="15" textLength="203.511" font-family="Arial">Gõ câu hỏi hoặc chọn gợi ý</text><rect x="305.175" y="792.932" width="74.622" height="42.461" fill="#FFF" style="stroke:#000;stroke-width:0.625;" rx="7.5" ry="7.5"/><text x="317.675" y="819.355" fill="#000" font-size="15" textLength="49.622" font-family="Arial">Gửi tin</text><path d="M248.599,1135.237 L248.599,1152.493 L223.599,1157.493 L248.599,1162.493 L248.599,1179.749 A0,0 0 0 0 248.599,1179.749 L389.911,1179.749 A0,0 0 0 0 389.911,1179.749 L389.911,1147.737 L377.411,1135.237 L248.599,1135.237 A0,0 0 0 0 248.599,1135.237" style="stroke:#000;stroke-width:0.625;" fill="#FFF"/><path d="M377.411,1135.237 L377.411,1147.737 L389.911,1147.737 L377.411,1135.237" style="stroke:#000;stroke-width:0.625;" fill="#FFF"/><text x="256.099" y="1154.25" fill="#000" font-size="13.75" textLength="115.062" font-family="Arial">Vẫn ở trong chat</text><text x="256.099" y="1170.256" fill="#000" font-size="13.75" textLength="86.898" font-family="Arial">Có thể gõ lại</text><rect x="66.25" y="1136.262" width="157.349" height="42.461" fill="#FFF" style="stroke:#000;stroke-width:0.625;" rx="7.5" ry="7.5"/><text x="78.75" y="1162.686" fill="#000" font-size="15" textLength="132.349" font-family="Arial">Đọc thông báo lỗi</text><rect x="469.241" y="1626.975" width="124.163" height="42.461" fill="#FFF" style="stroke:#000;stroke-width:0.625;" rx="7.5" ry="7.5"/><text x="481.741" y="1653.398" fill="#000" font-size="15" textLength="99.163" font-family="Arial">Đọc phản hồi</text><polygon points="342.485,670.471,357.485,685.471,342.485,700.471,327.485,685.471,342.485,670.471" fill="#FFF" style="stroke:#000;stroke-width:0.625;stroke-linejoin:miter;stroke-miterlimit:10;"/><polygon points="284.629,1736.936,400.342,1736.936,415.342,1751.936,400.342,1766.936,284.629,1766.936,269.629,1751.936,284.629,1736.936" fill="#FFF" style="stroke:#000;stroke-width:0.625;stroke-linejoin:miter;stroke-miterlimit:10;"/><text x="347.485" y="1779.699" fill="#000" font-size="13.75" textLength="43.586" font-family="Arial">Không</text><text x="284.629" y="1756.696" fill="#000" font-size="13.75" textLength="115.714" font-family="Arial">Hỏi tiếp / gửi lại?</text><text x="415.342" y="1748.693" fill="#000" font-size="13.75" textLength="18.013" font-family="Arial">Có</text><rect x="291.273" y="1806.574" width="102.424" height="42.461" fill="#FFF" style="stroke:#000;stroke-width:0.625;" rx="7.5" ry="7.5"/><text x="303.773" y="1832.997" fill="#000" font-size="15" textLength="77.424" font-family="Arial">Đóng chat</text><ellipse cx="342.485" cy="1887.785" rx="13.75" ry="13.75" fill="none" style="stroke:#222;stroke-width:1.25;"/><ellipse cx="342.485" cy="1887.785" rx="7.5" ry="7.5" fill="#222" style="stroke:#222;stroke-width:1.25;"/><line x1="25" y1="67.034" x2="25" y2="1901.535" style="stroke:#000;stroke-width:1.875;"/><rect x="781.279" y="208.206" width="172.598" height="42.461" fill="#FFF" style="stroke:#000;stroke-width:0.625;" rx="7.5" ry="7.5"/><text x="793.779" y="234.629" fill="#000" font-size="15" textLength="147.598" font-family="Arial">Hiển thị khung chat</text><rect x="731.687" y="275.667" width="271.782" height="42.461" fill="#FFF" style="stroke:#000;stroke-width:0.625;" rx="7.5" ry="7.5"/><text x="744.187" y="302.09" fill="#000" font-size="15" textLength="246.782" font-family="Arial">Kiểm tra còn cuộc chat cũ không</text><rect x="741.094" y="483.049" width="75.94" height="42.461" fill="#FFF" style="stroke:#000;stroke-width:0.625;" rx="7.5" ry="7.5"/><text x="753.594" y="509.473" fill="#000" font-size="15" textLength="50.94" font-family="Arial">Báo lỗi</text><rect x="855.276" y="483.049" width="201.631" height="42.461" fill="#FFF" style="stroke:#000;stroke-width:0.625;" rx="7.5" ry="7.5"/><text x="867.776" y="509.473" fill="#000" font-size="15" textLength="176.631" font-family="Arial">Hiện lời chào và ô nhập</text><rect x="761.368" y="860.393" width="212.419" height="59.922" fill="#FFF" style="stroke:#000;stroke-width:0.625;" rx="7.5" ry="7.5"/><text x="773.868" y="886.816" fill="#000" font-size="15" textLength="118.813" font-family="Arial">Hiện tin vừa gửi</text><text x="773.868" y="904.277" fill="#000" font-size="15" textLength="187.419" font-family="Arial">và trạng thái đang trả lời</text><rect x="773.483" y="945.315" width="188.191" height="42.461" fill="#FFF" style="stroke:#000;stroke-width:0.625;" rx="7.5" ry="7.5"/><text x="785.983" y="971.738" fill="#000" font-size="15" textLength="163.191" font-family="Arial">Chuyển tin sang xử lý</text><rect x="605.903" y="1067.776" width="128.228" height="42.461" fill="#FFF" style="stroke:#000;stroke-width:0.625;" rx="7.5" ry="7.5"/><text x="618.403" y="1094.199" fill="#000" font-size="15" textLength="103.228" font-family="Arial">Báo lỗi gửi tin</text><rect x="940.004" y="1559.514" width="250.271" height="42.461" fill="#FFF" style="stroke:#000;stroke-width:0.625;" rx="7.5" ry="7.5"/><text x="952.504" y="1585.938" fill="#000" font-size="15" textLength="225.271" font-family="Arial">Hiện câu trả lời trên màn hình</text><line x1="598.403" y1="67.034" x2="598.403" y2="1901.535" style="stroke:#000;stroke-width:1.875;"/><rect x="1235.478" y="343.127" width="199.69" height="59.922" fill="#FFF" style="stroke:#000;stroke-width:0.625;" rx="7.5" ry="7.5"/><text x="1247.978" y="369.551" fill="#000" font-size="15" textLength="99.661" font-family="Arial">Mở cuộc chat</text><text x="1247.978" y="387.012" fill="#000" font-size="15" textLength="174.69" font-family="Arial">(dùng lại hoặc tạo mới)</text><polygon points="1279.192,428.049,1391.454,428.049,1406.454,443.049,1391.454,458.049,1279.192,458.049,1264.192,443.049,1279.192,428.049" fill="#FFF" style="stroke:#000;stroke-width:0.625;stroke-linejoin:miter;stroke-miterlimit:10;"/><text x="1279.192" y="447.809" fill="#000" font-size="13.75" textLength="112.263" font-family="Arial">Mở được không?</text><text x="1220.605" y="439.807" fill="#000" font-size="13.75" textLength="43.586" font-family="Arial">Không</text><text x="1406.454" y="439.807" fill="#000" font-size="13.75" textLength="18.013" font-family="Arial">Có</text><polygon points="1260.111,1012.776,1410.535,1012.776,1425.535,1027.776,1410.535,1042.776,1260.111,1042.776,1245.111,1027.776,1260.111,1012.776" fill="#FFF" style="stroke:#000;stroke-width:0.625;stroke-linejoin:miter;stroke-miterlimit:10;"/><text x="1260.111" y="1032.536" fill="#000" font-size="13.75" textLength="150.424" font-family="Arial">Nhận tin được không?</text><text x="1201.525" y="1024.533" fill="#000" font-size="13.75" textLength="43.586" font-family="Arial">Không</text><text x="1425.535" y="1024.533" fill="#000" font-size="13.75" textLength="18.013" font-family="Arial">Có</text><rect x="1474.333" y="1067.776" width="117.102" height="42.461" fill="#FFF" style="stroke:#000;stroke-width:0.625;" rx="7.5" ry="7.5"/><text x="1486.833" y="1094.199" fill="#000" font-size="15" textLength="92.102" font-family="Arial">Ghi nhận tin</text><rect x="1430.348" y="1135.237" width="205.073" height="42.461" fill="#FFF" style="stroke:#000;stroke-width:0.625;" rx="7.5" ry="7.5"/><text x="1442.848" y="1161.66" fill="#000" font-size="15" textLength="180.073" font-family="Arial">Yêu cầu soạn câu trả lời</text><rect x="1466.698" y="1424.592" width="132.373" height="42.461" fill="#FFF" style="stroke:#000;stroke-width:0.625;" rx="7.5" ry="7.5"/><text x="1479.198" y="1451.016" fill="#000" font-size="15" textLength="107.373" font-family="Arial">Lưu câu trả lời</text><rect x="1473.388" y="1492.053" width="118.992" height="42.461" fill="#FFF" style="stroke:#000;stroke-width:0.625;" rx="7.5" ry="7.5"/><text x="1485.888" y="1518.477" fill="#000" font-size="15" textLength="93.992" font-family="Arial">Báo đã xong</text><polygon points="1335.323,1681.936,1350.323,1696.936,1335.323,1711.936,1320.323,1696.936,1335.323,1681.936" fill="#FFF" style="stroke:#000;stroke-width:0.625;stroke-linejoin:miter;stroke-miterlimit:10;"/><line x1="1195.275" y1="67.034" x2="1195.275" y2="1901.535" style="stroke:#000;stroke-width:1.875;"/><rect x="1666.627" y="1204.749" width="199.961" height="42.461" fill="#FFF" style="stroke:#000;stroke-width:0.625;" rx="7.5" ry="7.5"/><text x="1679.127" y="1231.172" fill="#000" font-size="15" textLength="174.961" font-family="Arial">Tìm thông tin liên quan</text><rect x="1647.921" y="1272.209" width="237.373" height="59.922" fill="#FFF" style="stroke:#000;stroke-width:0.625;" rx="7.5" ry="7.5"/><text x="1660.421" y="1298.633" fill="#000" font-size="15" textLength="117.4" font-family="Arial">Soạn câu trả lời</text><text x="1660.421" y="1316.094" fill="#000" font-size="15" textLength="212.373" font-family="Arial">(hoặc báo chưa hỗ trợ được)</text><rect x="1684.963" y="1357.131" width="163.289" height="42.461" fill="#FFF" style="stroke:#000;stroke-width:0.625;" rx="7.5" ry="7.5"/><text x="1697.463" y="1383.555" fill="#000" font-size="15" textLength="138.289" font-family="Arial">Gửi câu trả lời dần</text><line x1="1640.421" y1="67.034" x2="1640.421" y2="1901.535" style="stroke:#000;stroke-width:1.875;"/><line x1="1890.294" y1="67.034" x2="1890.294" y2="1901.535" style="stroke:#000;stroke-width:1.875;"/><line x1="342.485" y1="115.745" x2="342.485" y2="140.745" style="stroke:#000;stroke-width:1.563;"/><polygon points="337.485,128.245,342.485,140.745,347.485,128.245,342.485,133.245" fill="#000" style="stroke:#000;stroke-width:1.25;stroke-linejoin:miter;stroke-miterlimit:10;"/><line x1="253.972" y1="592.971" x2="253.972" y2="617.971" style="stroke:#000;stroke-width:1.563;"/><polygon points="248.972,605.471,253.972,617.971,258.972,605.471,253.972,610.471" fill="#000" style="stroke:#000;stroke-width:1.25;stroke-linejoin:miter;stroke-miterlimit:10;"/><line x1="342.485" y1="767.932" x2="342.485" y2="792.932" style="stroke:#000;stroke-width:1.563;"/><polygon points="337.485,780.432,342.485,792.932,347.485,780.432,342.485,785.432" fill="#000" style="stroke:#000;stroke-width:1.25;stroke-linejoin:miter;stroke-miterlimit:10;"/><line x1="342.485" y1="700.471" x2="342.485" y2="725.471" style="stroke:#000;stroke-width:1.563;"/><polygon points="337.485,712.971,342.485,725.471,347.485,712.971,342.485,717.971" fill="#000" style="stroke:#000;stroke-width:1.25;stroke-linejoin:miter;stroke-miterlimit:10;"/><line x1="269.629" y1="1751.936" x2="48.75" y2="1751.936" style="stroke:#000;stroke-width:1.563;"/><polygon points="43.75,1232.229,48.75,1219.729,53.75,1232.229,48.75,1227.229" fill="#000" style="stroke:#000;stroke-width:1.563;stroke-linejoin:miter;stroke-miterlimit:10;"/><line x1="48.75" y1="685.471" x2="48.75" y2="1751.936" style="stroke:#000;stroke-width:1.563;"/><line x1="48.75" y1="685.471" x2="327.485" y2="685.471" style="stroke:#000;stroke-width:1.563;"/><polygon points="314.985,680.471,327.485,685.471,314.985,690.471,319.985,685.471" fill="#000" style="stroke:#000;stroke-width:1.25;stroke-linejoin:miter;stroke-miterlimit:10;"/><line x1="342.485" y1="1766.936" x2="342.485" y2="1806.574" style="stroke:#000;stroke-width:1.563;"/><polygon points="337.485,1794.074,342.485,1806.574,347.485,1794.074,342.485,1799.074" fill="#000" style="stroke:#000;stroke-width:1.25;stroke-linejoin:miter;stroke-miterlimit:10;"/><line x1="342.485" y1="1849.035" x2="342.485" y2="1874.035" style="stroke:#000;stroke-width:1.563;"/><polygon points="337.485,1861.535,342.485,1874.035,347.485,1861.535,342.485,1866.535" fill="#000" style="stroke:#000;stroke-width:1.25;stroke-linejoin:miter;stroke-miterlimit:10;"/><line x1="867.578" y1="250.667" x2="867.578" y2="275.667" style="stroke:#000;stroke-width:1.563;"/><polygon points="862.578,263.167,867.578,275.667,872.578,263.167,867.578,268.167" fill="#000" style="stroke:#000;stroke-width:1.25;stroke-linejoin:miter;stroke-miterlimit:10;"/><line x1="867.578" y1="920.315" x2="867.578" y2="945.315" style="stroke:#000;stroke-width:1.563;"/><polygon points="862.578,932.815,867.578,945.315,872.578,932.815,867.578,937.815" fill="#000" style="stroke:#000;stroke-width:1.25;stroke-linejoin:miter;stroke-miterlimit:10;"/><line x1="1335.323" y1="403.049" x2="1335.323" y2="428.049" style="stroke:#000;stroke-width:1.563;"/><polygon points="1330.323,415.549,1335.323,428.049,1340.323,415.549,1335.323,420.549" fill="#000" style="stroke:#000;stroke-width:1.25;stroke-linejoin:miter;stroke-miterlimit:10;"/><line x1="1532.884" y1="1110.237" x2="1532.884" y2="1135.237" style="stroke:#000;stroke-width:1.563;"/><polygon points="1527.884,1122.737,1532.884,1135.237,1537.884,1122.737,1532.884,1127.737" fill="#000" style="stroke:#000;stroke-width:1.25;stroke-linejoin:miter;stroke-miterlimit:10;"/><line x1="1532.884" y1="1467.053" x2="1532.884" y2="1492.053" style="stroke:#000;stroke-width:1.563;"/><polygon points="1527.884,1479.553,1532.884,1492.053,1537.884,1479.553,1532.884,1484.553" fill="#000" style="stroke:#000;stroke-width:1.25;stroke-linejoin:miter;stroke-miterlimit:10;"/><line x1="1425.535" y1="1027.776" x2="1532.884" y2="1027.776" style="stroke:#000;stroke-width:1.563;"/><line x1="1532.884" y1="1027.776" x2="1532.884" y2="1067.776" style="stroke:#000;stroke-width:1.563;"/><polygon points="1527.884,1055.276,1532.884,1067.776,1537.884,1055.276,1532.884,1060.276" fill="#000" style="stroke:#000;stroke-width:1.25;stroke-linejoin:miter;stroke-miterlimit:10;"/><line x1="1766.607" y1="1247.209" x2="1766.607" y2="1272.209" style="stroke:#000;stroke-width:1.563;"/><polygon points="1761.607,1259.709,1766.607,1272.209,1771.607,1259.709,1766.607,1264.709" fill="#000" style="stroke:#000;stroke-width:1.25;stroke-linejoin:miter;stroke-miterlimit:10;"/><line x1="1766.607" y1="1332.131" x2="1766.607" y2="1357.131" style="stroke:#000;stroke-width:1.563;"/><polygon points="1761.607,1344.631,1766.607,1357.131,1771.607,1344.631,1766.607,1349.631" fill="#000" style="stroke:#000;stroke-width:1.25;stroke-linejoin:miter;stroke-miterlimit:10;"/><line x1="342.485" y1="183.206" x2="342.485" y2="189.456" style="stroke:#000;stroke-width:1.563;"/><line x1="342.485" y1="189.456" x2="867.578" y2="189.456" style="stroke:#000;stroke-width:1.563;"/><line x1="867.578" y1="189.456" x2="867.578" y2="208.206" style="stroke:#000;stroke-width:1.563;"/><polygon points="862.578,195.706,867.578,208.206,872.578,195.706,867.578,200.706" fill="#000" style="stroke:#000;stroke-width:1.25;stroke-linejoin:miter;stroke-miterlimit:10;"/><line x1="867.578" y1="318.127" x2="867.578" y2="324.377" style="stroke:#000;stroke-width:1.563;"/><line x1="867.578" y1="324.377" x2="1335.323" y2="324.377" style="stroke:#000;stroke-width:1.563;"/><line x1="1335.323" y1="324.377" x2="1335.323" y2="343.127" style="stroke:#000;stroke-width:1.563;"/><polygon points="1330.323,330.627,1335.323,343.127,1340.323,330.627,1335.323,335.627" fill="#000" style="stroke:#000;stroke-width:1.25;stroke-linejoin:miter;stroke-miterlimit:10;"/><line x1="779.064" y1="525.51" x2="779.064" y2="531.76" style="stroke:#000;stroke-width:1.563;"/><line x1="779.064" y1="531.76" x2="253.972" y2="531.76" style="stroke:#000;stroke-width:1.563;"/><line x1="253.972" y1="531.76" x2="253.972" y2="550.51" style="stroke:#000;stroke-width:1.563;"/><polygon points="248.972,538.01,253.972,550.51,258.972,538.01,253.972,543.01" fill="#000" style="stroke:#000;stroke-width:1.25;stroke-linejoin:miter;stroke-miterlimit:10;"/><line x1="1264.192" y1="443.049" x2="779.064" y2="443.049" style="stroke:#000;stroke-width:1.563;"/><line x1="779.064" y1="443.049" x2="779.064" y2="483.049" style="stroke:#000;stroke-width:1.563;"/><polygon points="774.064,470.549,779.064,483.049,784.064,470.549,779.064,475.549" fill="#000" style="stroke:#000;stroke-width:1.25;stroke-linejoin:miter;stroke-miterlimit:10;"/><line x1="1406.454" y1="443.049" x2="1421.454" y2="443.049" style="stroke:#000;stroke-width:1.563;"/><line x1="1421.454" y1="443.049" x2="1421.454" y2="465.549" style="stroke:#000;stroke-width:1.563;"/><line x1="1421.454" y1="465.549" x2="956.092" y2="465.549" style="stroke:#000;stroke-width:1.563;"/><line x1="956.092" y1="465.549" x2="956.092" y2="483.049" style="stroke:#000;stroke-width:1.563;"/><polygon points="951.092,470.549,956.092,483.049,961.092,470.549,956.092,475.549" fill="#000" style="stroke:#000;stroke-width:1.25;stroke-linejoin:miter;stroke-miterlimit:10;"/><line x1="956.092" y1="525.51" x2="956.092" y2="651.721" style="stroke:#000;stroke-width:1.563;"/><line x1="956.092" y1="651.721" x2="342.485" y2="651.721" style="stroke:#000;stroke-width:1.563;"/><line x1="342.485" y1="651.721" x2="342.485" y2="670.471" style="stroke:#000;stroke-width:1.563;"/><polygon points="337.485,657.971,342.485,670.471,347.485,657.971,342.485,662.971" fill="#000" style="stroke:#000;stroke-width:1.25;stroke-linejoin:miter;stroke-miterlimit:10;"/><line x1="342.485" y1="835.393" x2="342.485" y2="841.643" style="stroke:#000;stroke-width:1.563;"/><line x1="342.485" y1="841.643" x2="867.578" y2="841.643" style="stroke:#000;stroke-width:1.563;"/><line x1="867.578" y1="841.643" x2="867.578" y2="860.393" style="stroke:#000;stroke-width:1.563;"/><polygon points="862.578,847.893,867.578,860.393,872.578,847.893,867.578,852.893" fill="#000" style="stroke:#000;stroke-width:1.25;stroke-linejoin:miter;stroke-miterlimit:10;"/><line x1="670.017" y1="1110.237" x2="670.017" y2="1116.487" style="stroke:#000;stroke-width:1.563;"/><line x1="670.017" y1="1116.487" x2="144.924" y2="1116.487" style="stroke:#000;stroke-width:1.563;"/><line x1="144.924" y1="1116.487" x2="144.924" y2="1136.262" style="stroke:#000;stroke-width:1.563;"/><polygon points="139.924,1123.762,144.924,1136.262,149.924,1123.762,144.924,1128.762" fill="#000" style="stroke:#000;stroke-width:1.25;stroke-linejoin:miter;stroke-miterlimit:10;"/><line x1="1532.884" y1="1177.698" x2="1532.884" y2="1185.999" style="stroke:#000;stroke-width:1.563;"/><line x1="1532.884" y1="1185.999" x2="1766.607" y2="1185.999" style="stroke:#000;stroke-width:1.563;"/><line x1="1766.607" y1="1185.999" x2="1766.607" y2="1204.749" style="stroke:#000;stroke-width:1.563;"/><polygon points="1761.607,1192.249,1766.607,1204.749,1771.607,1192.249,1766.607,1197.249" fill="#000" style="stroke:#000;stroke-width:1.25;stroke-linejoin:miter;stroke-miterlimit:10;"/><line x1="1766.607" y1="1399.592" x2="1766.607" y2="1405.842" style="stroke:#000;stroke-width:1.563;"/><line x1="1766.607" y1="1405.842" x2="1532.884" y2="1405.842" style="stroke:#000;stroke-width:1.563;"/><line x1="1532.884" y1="1405.842" x2="1532.884" y2="1424.592" style="stroke:#000;stroke-width:1.563;"/><polygon points="1527.884,1412.092,1532.884,1424.592,1537.884,1412.092,1532.884,1417.092" fill="#000" style="stroke:#000;stroke-width:1.25;stroke-linejoin:miter;stroke-miterlimit:10;"/><line x1="1532.884" y1="1534.514" x2="1532.884" y2="1540.764" style="stroke:#000;stroke-width:1.563;"/><line x1="1532.884" y1="1540.764" x2="1065.139" y2="1540.764" style="stroke:#000;stroke-width:1.563;"/><line x1="1065.139" y1="1540.764" x2="1065.139" y2="1559.514" style="stroke:#000;stroke-width:1.563;"/><polygon points="1060.139,1547.014,1065.139,1559.514,1070.139,1547.014,1065.139,1552.014" fill="#000" style="stroke:#000;stroke-width:1.25;stroke-linejoin:miter;stroke-miterlimit:10;"/><line x1="1065.139" y1="1601.975" x2="1065.139" y2="1608.225" style="stroke:#000;stroke-width:1.563;"/><line x1="1065.139" y1="1608.225" x2="531.322" y2="1608.225" style="stroke:#000;stroke-width:1.563;"/><line x1="531.322" y1="1608.225" x2="531.322" y2="1626.975" style="stroke:#000;stroke-width:1.563;"/><polygon points="526.322,1614.475,531.322,1626.975,536.322,1614.475,531.322,1619.475" fill="#000" style="stroke:#000;stroke-width:1.25;stroke-linejoin:miter;stroke-miterlimit:10;"/><line x1="1245.111" y1="1027.776" x2="670.017" y2="1027.776" style="stroke:#000;stroke-width:1.563;"/><line x1="670.017" y1="1027.776" x2="670.017" y2="1067.776" style="stroke:#000;stroke-width:1.563;"/><polygon points="665.017,1055.276,670.017,1067.776,675.017,1055.276,670.017,1060.276" fill="#000" style="stroke:#000;stroke-width:1.25;stroke-linejoin:miter;stroke-miterlimit:10;"/><line x1="144.924" y1="1178.723" x2="144.924" y2="1696.936" style="stroke:#000;stroke-width:1.563;"/><line x1="144.924" y1="1696.936" x2="1320.323" y2="1696.936" style="stroke:#000;stroke-width:1.563;"/><polygon points="1307.823,1691.936,1320.323,1696.936,1307.823,1701.936,1312.823,1696.936" fill="#000" style="stroke:#000;stroke-width:1.25;stroke-linejoin:miter;stroke-miterlimit:10;"/><line x1="531.322" y1="1669.436" x2="531.322" y2="1674.436" style="stroke:#000;stroke-width:1.563;"/><line x1="531.322" y1="1674.436" x2="1372.823" y2="1674.436" style="stroke:#000;stroke-width:1.563;"/><line x1="1372.823" y1="1674.436" x2="1372.823" y2="1696.936" style="stroke:#000;stroke-width:1.563;"/><line x1="1372.823" y1="1696.936" x2="1350.323" y2="1696.936" style="stroke:#000;stroke-width:1.563;"/><polygon points="1362.823,1691.936,1350.323,1696.936,1362.823,1701.936,1357.823,1696.936" fill="#000" style="stroke:#000;stroke-width:1.25;stroke-linejoin:miter;stroke-miterlimit:10;"/><line x1="867.578" y1="987.776" x2="867.578" y2="994.026" style="stroke:#000;stroke-width:1.563;"/><line x1="867.578" y1="994.026" x2="1335.323" y2="994.026" style="stroke:#000;stroke-width:1.563;"/><line x1="1335.323" y1="994.026" x2="1335.323" y2="1012.776" style="stroke:#000;stroke-width:1.563;"/><polygon points="1330.323,1000.276,1335.323,1012.776,1340.323,1000.276,1335.323,1005.276" fill="#000" style="stroke:#000;stroke-width:1.25;stroke-linejoin:miter;stroke-miterlimit:10;"/><line x1="1335.323" y1="1711.936" x2="1335.323" y2="1718.186" style="stroke:#000;stroke-width:1.563;"/><line x1="1335.323" y1="1718.186" x2="342.485" y2="1718.186" style="stroke:#000;stroke-width:1.563;"/><line x1="342.485" y1="1718.186" x2="342.485" y2="1736.936" style="stroke:#000;stroke-width:1.563;"/><polygon points="337.485,1724.436,342.485,1736.936,347.485,1724.436,342.485,1729.436" fill="#000" style="stroke:#000;stroke-width:1.25;stroke-linejoin:miter;stroke-miterlimit:10;"/><?plantuml-src jLLDYnj74BtFhtYGWoK8jjV15oqXQ6Nlhl5wCLux4F2bDJFID3lgLdfwzYDPdtp88GHxyS644BA9CC4V2ulj4A8Xv33A_e_v9wdk6KcZsP5zYWv2rLNzgkgzwj8bR6JZtmLsD5CFxcorm0NNd8Nu76wGZLyCC3ds1Nrbup_TJz7Zmle2nh6NlXLzDBfn64R-eTzqebqkXaon0QA0UNAVaxl7o5doU7wFnQ5Ubq9liu6Fjg9azVuT_esFbMjbvv3JmTNIoJqP2wyZbV3LOcXRARdVaQ5K-EIg_LITzmFkxWe_Yh1o-ThrgdTUm4h9jIsrlyRStRxAyrhuTVkfHadb-MfP0IPYUOOAEIKlSpNVu_eGtph0iaB8KvCSCB1rPrEUSwkK6BZ1sK0ARtccQK1jmi9PRXHsq2wKSNE6F3jQOnMyHsKYw5lJd4hnFp3nsTJIXw6FhWoz6L1vPgwRYgW8YjcAi-GP3RledvzboSySNleNcL6MdCBBaXVqknCmtPK7M5SnrwmR-f7Z76qln1yvaU76QTt9ab-m6yHqpQLhgnIvmPc4nxFaEs6XZfpM9bcF1NIG9TylHBTk6yy0MZ6uz4RXKda_kjOBzz-N59o-5tq3sxvxQmfdavOY7uf6taMOZN_b2AHP0D1aI0oov2VU903UGyDUd1oRJaPkWVr5a-gYjT6uRSqc4LZJ0j1QImakp9BdVDN4L0cXYCdJzDsiDI3ISkZuj5FGwAJlbWDlvdPeqTmWFP6qhqwGleUWjNOwN7LyuV5UZGZA7_fC6uoDz0yYyBSOHF6J6GMq5fCV1FhKBaVwzwgD9AKvD1V4oKSgeY3iPSbhPX1E-KDXojAAUAKkTP0IrvDZPdxJsIXlmERe1F5XhZWXH2RYmCnNQ4emIUTQ0aQNRTDd7lrnTPOKlQ1GNd3UfRrnKIsh5z7Zcau86jq5VG51wmsAzmDjJU3BRFnQm8oGLhBGkN2HldQw7wDFGjWnj1uIpkAGiJ085GwCB07FvHRpgbjVfQzYkFId5oEIXlPSumMwSxHxxGrSGVjMWNO_VJEOzcLO3NdwIk3hc4sHT-hXw2KLesFPS8FpCsP6wha9IaOpTPe5J3vCLHHQ9FG_FIsjqkZM-LbSqyPSmCbnEiA1jA_-GseNGteXkLQcrq5w8X2aRqGmXVdG20o9-P4mdJwpjHGFhkPM_kIm7t1QferD-zeqpyR_38d_VEgi_3IuFChrDXCm7-2BhtXnRvYjyHy0?></g></g>
<!-- StarUML-like closed frame (post-process) -->
<g id="staruml-frame" font-family="Arial, Helvetica, sans-serif">
<rect x="25" y="57.244" width="1865.5" height="1920.0430000000001" fill="none" stroke="#000000" stroke-width="2.25"/>
<rect x="25" y="57.244" width="573.5" height="42" fill="#FFFFFF" stroke="#000000" stroke-width="1.75"/>
<text x="311.75" y="83.244" text-anchor="middle" fill="#000000" font-size="14" font-weight="700">Người dùng</text>
<rect x="598.5" y="57.244" width="597" height="42" fill="#FFFFFF" stroke="#000000" stroke-width="1.75"/>
<text x="897" y="83.244" text-anchor="middle" fill="#000000" font-size="14" font-weight="700">Giao diện Chat</text>
<rect x="1195.5" y="57.244" width="445" height="42" fill="#FFFFFF" stroke="#000000" stroke-width="1.75"/>
<text x="1418" y="83.244" text-anchor="middle" fill="#000000" font-size="14" font-weight="700">API Chat</text>
<rect x="1640.5" y="57.244" width="250" height="42" fill="#FFFFFF" stroke="#000000" stroke-width="1.75"/>
<text x="1765.5" y="83.244" text-anchor="middle" fill="#000000" font-size="14" font-weight="700">RAG / AI</text>
<line x1="25" y1="99.244" x2="1890.5" y2="99.244" stroke="#000000" stroke-width="2"/>
<line x1="598.5" y1="99.244" x2="598.5" y2="1977.287" stroke="#000000" stroke-width="1.5"/>
<line x1="1195.5" y1="99.244" x2="1195.5" y2="1977.287" stroke="#000000" stroke-width="1.5"/>
<line x1="1640.5" y1="99.244" x2="1640.5" y2="1977.287" stroke="#000000" stroke-width="1.5"/>
</g>
</svg>